STARTFONT 2.1
FONT -t-cherry-Medium-R-Normal--12-90-100-100-C-70-ISO10646-1
SIZE 12 96 96
FONTBOUNDINGBOX 7 12 0 -2
COMMENT "Generated by fontforge, http://fontforge.sourceforge.net"
STARTPROPERTIES 13
POINT_SIZE 90
PIXEL_SIZE 12
RESOLUTION_X 100
RESOLUTION_Y 100
FONT_ASCENT 10
FONT_DESCENT 2
AVERAGE_WIDTH 100
SPACING "C"
FOUNDRY "t"
FAMILY_NAME "cherry"
CHARSET_ENCODING "1"
CHARSET_REGISTRY "ISO10646"
_GBDFED_INFO "Edited with gbdfed 1.6."
ENDPROPERTIES
CHARS 192
STARTCHAR control
ENCODING 0
SWIDTH 437 0
DWIDTH 7 0
BBX 1 1 6 -2
BITMAP
00
ENDCHAR
STARTCHAR SPACE
ENCODING 32
SWIDTH 437 0
DWIDTH 7 0
BBX 1 1 6 -2
BITMAP
00
ENDCHAR
STARTCHAR EXCLAMATION
ENCODING 33
SWIDTH 437 0
DWIDTH 7 0
BBX 1 8 3 0
BITMAP
80
80
80
80
80
00
80
80
ENDCHAR
STARTCHAR QUOTATION
ENCODING 34
SWIDTH 437 0
DWIDTH 7 0
BBX 3 3 2 5
BITMAP
A0
A0
A0
ENDCHAR
STARTCHAR NUMBER
ENCODING 35
SWIDTH 437 0
DWIDTH 7 0
BBX 5 8 1 0
BITMAP
50
50
F8
50
50
F8
50
50
ENDCHAR
STARTCHAR DOLLAR
ENCODING 36
SWIDTH 437 0
DWIDTH 7 0
BBX 5 9 1 -1
BITMAP
20
70
A8
A0
70
28
A8
70
20
ENDCHAR
STARTCHAR PERCENT
ENCODING 37
SWIDTH 437 0
DWIDTH 7 0
BBX 6 8 1 0
BITMAP
48
A8
50
10
20
28
54
48
ENDCHAR
STARTCHAR AMPERSAND
ENCODING 38
SWIDTH 437 0
DWIDTH 7 0
BBX 6 8 1 0
BITMAP
20
50
50
20
64
94
88
74
ENDCHAR
STARTCHAR APOSTROPHE
ENCODING 39
SWIDTH 437 0
DWIDTH 7 0
BBX 3 3 2 5
BITMAP
60
40
80
ENDCHAR
STARTCHAR LEFT
ENCODING 40
SWIDTH 437 0
DWIDTH 7 0
BBX 3 10 2 -1
BITMAP
20
40
40
80
80
80
80
40
40
20
ENDCHAR
STARTCHAR RIGHT
ENCODING 41
SWIDTH 437 0
DWIDTH 7 0
BBX 3 10 2 -1
BITMAP
80
40
40
20
20
20
20
40
40
80
ENDCHAR
STARTCHAR ASTERISK
ENCODING 42
SWIDTH 437 0
DWIDTH 7 0
BBX 5 5 1 1
BITMAP
50
20
F8
20
50
ENDCHAR
STARTCHAR PLUS
ENCODING 43
SWIDTH 437 0
DWIDTH 7 0
BBX 5 5 1 1
BITMAP
20
20
F8
20
20
ENDCHAR
STARTCHAR COMMA
ENCODING 44
SWIDTH 437 0
DWIDTH 7 0
BBX 2 3 2 -1
BITMAP
40
40
80
ENDCHAR
STARTCHAR HYPHEN-MINUS
ENCODING 45
SWIDTH 437 0
DWIDTH 7 0
BBX 5 1 1 3
BITMAP
F8
ENDCHAR
STARTCHAR FULL
ENCODING 46
SWIDTH 437 0
DWIDTH 7 0
BBX 1 2 3 0
BITMAP
80
80
ENDCHAR
STARTCHAR SOLIDUS
ENCODING 47
SWIDTH 437 0
DWIDTH 7 0
BBX 4 8 2 0
BITMAP
10
10
20
20
40
40
80
80
ENDCHAR
STARTCHAR DIGIT
ENCODING 48
SWIDTH 437 0
DWIDTH 7 0
BBX 5 8 1 0
BITMAP
70
88
98
A8
C8
88
88
70
ENDCHAR
STARTCHAR DIGIT
ENCODING 49
SWIDTH 437 0
DWIDTH 7 0
BBX 3 8 2 0
BITMAP
20
60
A0
20
20
20
20
20
ENDCHAR
STARTCHAR DIGIT
ENCODING 50
SWIDTH 437 0
DWIDTH 7 0
BBX 5 8 1 0
BITMAP
70
88
88
10
20
40
80
F8
ENDCHAR
STARTCHAR DIGIT
ENCODING 51
SWIDTH 437 0
DWIDTH 7 0
BBX 5 8 1 0
BITMAP
70
88
08
30
08
08
88
70
ENDCHAR
STARTCHAR DIGIT
ENCODING 52
SWIDTH 437 0
DWIDTH 7 0
BBX 5 8 1 0
BITMAP
10
30
30
50
50
F8
10
10
ENDCHAR
STARTCHAR DIGIT
ENCODING 53
SWIDTH 437 0
DWIDTH 7 0
BBX 5 8 1 0
BITMAP
F8
80
80
F0
08
08
08
F0
ENDCHAR
STARTCHAR DIGIT
ENCODING 54
SWIDTH 437 0
DWIDTH 7 0
BBX 5 8 1 0
BITMAP
70
80
80
F0
88
88
88
70
ENDCHAR
STARTCHAR DIGIT
ENCODING 55
SWIDTH 437 0
DWIDTH 7 0
BBX 5 8 1 0
BITMAP
F8
08
10
10
20
20
40
40
ENDCHAR
STARTCHAR DIGIT
ENCODING 56
SWIDTH 437 0
DWIDTH 7 0
BBX 5 8 1 0
BITMAP
70
88
88
70
88
88
88
70
ENDCHAR
STARTCHAR DIGIT
ENCODING 57
SWIDTH 437 0
DWIDTH 7 0
BBX 5 8 1 0
BITMAP
70
88
88
88
78
08
08
70
ENDCHAR
STARTCHAR COLON
ENCODING 58
SWIDTH 437 0
DWIDTH 7 0
BBX 1 6 3 0
BITMAP
80
80
00
00
80
80
ENDCHAR
STARTCHAR SEMICOLON
ENCODING 59
SWIDTH 437 0
DWIDTH 7 0
BBX 2 7 2 -1
BITMAP
40
40
00
00
40
40
80
ENDCHAR
STARTCHAR LESS-THAN
ENCODING 60
SWIDTH 437 0
DWIDTH 7 0
BBX 4 5 1 1
BITMAP
10
60
80
60
10
ENDCHAR
STARTCHAR EQUALS
ENCODING 61
SWIDTH 437 0
DWIDTH 7 0
BBX 5 3 1 2
BITMAP
F8
00
F8
ENDCHAR
STARTCHAR GREATER-THAN
ENCODING 62
SWIDTH 437 0
DWIDTH 7 0
BBX 4 5 2 1
BITMAP
80
60
10
60
80
ENDCHAR
STARTCHAR QUESTION
ENCODING 63
SWIDTH 437 0
DWIDTH 7 0
BBX 5 8 1 0
BITMAP
70
88
88
10
20
00
20
20
ENDCHAR
STARTCHAR COMMERCIAL
ENCODING 64
SWIDTH 437 0
DWIDTH 7 0
BBX 5 8 1 0
BITMAP
70
88
B8
A8
A8
98
80
78
ENDCHAR
STARTCHAR LATIN
ENCODING 65
SWIDTH 437 0
DWIDTH 7 0
BBX 5 8 1 0
BITMAP
20
20
50
50
70
88
88
88
ENDCHAR
STARTCHAR LATIN
ENCODING 66
SWIDTH 437 0
DWIDTH 7 0
BBX 5 8 1 0
BITMAP
F0
88
88
F0
88
88
88
F0
ENDCHAR
STARTCHAR LATIN
ENCODING 67
SWIDTH 437 0
DWIDTH 7 0
BBX 5 8 1 0
BITMAP
70
88
80
80
80
80
88
70
ENDCHAR
STARTCHAR LATIN
ENCODING 68
SWIDTH 437 0
DWIDTH 7 0
BBX 5 8 1 0
BITMAP
F0
88
88
88
88
88
88
F0
ENDCHAR
STARTCHAR LATIN
ENCODING 69
SWIDTH 437 0
DWIDTH 7 0
BBX 5 8 1 0
BITMAP
F8
80
80
F0
80
80
80
F8
ENDCHAR
STARTCHAR LATIN
ENCODING 70
SWIDTH 437 0
DWIDTH 7 0
BBX 5 8 1 0
BITMAP
F8
80
80
F0
80
80
80
80
ENDCHAR
STARTCHAR LATIN
ENCODING 71
SWIDTH 437 0
DWIDTH 7 0
BBX 5 8 1 0
BITMAP
70
88
80
98
88
88
88
70
ENDCHAR
STARTCHAR LATIN
ENCODING 72
SWIDTH 437 0
DWIDTH 7 0
BBX 5 8 1 0
BITMAP
88
88
88
F8
88
88
88
88
ENDCHAR
STARTCHAR LATIN
ENCODING 73
SWIDTH 437 0
DWIDTH 7 0
BBX 3 8 2 0
BITMAP
E0
40
40
40
40
40
40
E0
ENDCHAR
STARTCHAR LATIN
ENCODING 74
SWIDTH 437 0
DWIDTH 7 0
BBX 4 8 2 0
BITMAP
F0
10
10
10
10
10
10
E0
ENDCHAR
STARTCHAR LATIN
ENCODING 75
SWIDTH 437 0
DWIDTH 7 0
BBX 5 8 1 0
BITMAP
88
90
A0
C0
C0
A0
90
88
ENDCHAR
STARTCHAR LATIN
ENCODING 76
SWIDTH 437 0
DWIDTH 7 0
BBX 4 8 2 0
BITMAP
80
80
80
80
80
80
80
F0
ENDCHAR
STARTCHAR LATIN
ENCODING 77
SWIDTH 437 0
DWIDTH 7 0
BBX 5 8 1 0
BITMAP
88
F8
88
88
88
88
88
88
ENDCHAR
STARTCHAR LATIN
ENCODING 78
SWIDTH 437 0
DWIDTH 7 0
BBX 5 8 1 0
BITMAP
88
C8
C8
A8
A8
98
98
88
ENDCHAR
STARTCHAR LATIN
ENCODING 79
SWIDTH 437 0
DWIDTH 7 0
BBX 5 8 1 0
BITMAP
70
88
88
88
88
88
88
70
ENDCHAR
STARTCHAR LATIN
ENCODING 80
SWIDTH 437 0
DWIDTH 7 0
BBX 5 8 1 0
BITMAP
F0
88
88
F0
80
80
80
80
ENDCHAR
STARTCHAR LATIN
ENCODING 81
SWIDTH 437 0
DWIDTH 7 0
BBX 5 9 1 -1
BITMAP
70
88
88
88
88
88
88
70
18
ENDCHAR
STARTCHAR LATIN
ENCODING 82
SWIDTH 437 0
DWIDTH 7 0
BBX 5 8 1 0
BITMAP
F0
88
88
F0
90
90
88
88
ENDCHAR
STARTCHAR LATIN
ENCODING 83
SWIDTH 437 0
DWIDTH 7 0
BBX 5 8 1 0
BITMAP
70
88
80
70
08
08
88
70
ENDCHAR
STARTCHAR LATIN
ENCODING 84
SWIDTH 437 0
DWIDTH 7 0
BBX 5 8 1 0
BITMAP
F8
20
20
20
20
20
20
20
ENDCHAR
STARTCHAR LATIN
ENCODING 85
SWIDTH 437 0
DWIDTH 7 0
BBX 5 8 1 0
BITMAP
88
88
88
88
88
88
88
78
ENDCHAR
STARTCHAR LATIN
ENCODING 86
SWIDTH 437 0
DWIDTH 7 0
BBX 5 8 1 0
BITMAP
88
88
88
50
50
50
20
20
ENDCHAR
STARTCHAR LATIN
ENCODING 87
SWIDTH 437 0
DWIDTH 7 0
BBX 5 8 1 0
BITMAP
88
88
88
88
88
88
F8
88
ENDCHAR
STARTCHAR LATIN
ENCODING 88
SWIDTH 437 0
DWIDTH 7 0
BBX 5 8 1 0
BITMAP
88
88
50
20
20
50
88
88
ENDCHAR
STARTCHAR LATIN
ENCODING 89
SWIDTH 437 0
DWIDTH 7 0
BBX 5 8 1 0
BITMAP
88
88
50
50
20
20
20
20
ENDCHAR
STARTCHAR LATIN
ENCODING 90
SWIDTH 437 0
DWIDTH 7 0
BBX 5 8 1 0
BITMAP
F8
08
10
20
20
40
80
F8
ENDCHAR
STARTCHAR LEFT
ENCODING 91
SWIDTH 437 0
DWIDTH 7 0
BBX 3 10 2 -1
BITMAP
E0
80
80
80
80
80
80
80
80
E0
ENDCHAR
STARTCHAR REVERSE
ENCODING 92
SWIDTH 437 0
DWIDTH 7 0
BBX 4 8 1 0
BITMAP
80
80
40
40
20
20
10
10
ENDCHAR
STARTCHAR RIGHT
ENCODING 93
SWIDTH 437 0
DWIDTH 7 0
BBX 3 10 2 -1
BITMAP
E0
20
20
20
20
20
20
20
20
E0
ENDCHAR
STARTCHAR CIRCUMFLEX
ENCODING 94
SWIDTH 437 0
DWIDTH 7 0
BBX 5 3 1 5
BITMAP
20
50
88
ENDCHAR
STARTCHAR LOW
ENCODING 95
SWIDTH 437 0
DWIDTH 7 0
BBX 5 1 1 -1
BITMAP
F8
ENDCHAR
STARTCHAR GRAVE
ENCODING 96
SWIDTH 437 0
DWIDTH 7 0
BBX 3 3 2 5
BITMAP
C0
40
20
ENDCHAR
STARTCHAR LATIN
ENCODING 97
SWIDTH 437 0
DWIDTH 7 0
BBX 5 6 1 0
BITMAP
70
08
78
88
88
78
ENDCHAR
STARTCHAR LATIN
ENCODING 98
SWIDTH 437 0
DWIDTH 7 0
BBX 5 8 1 0
BITMAP
80
80
F0
88
88
88
88
F0
ENDCHAR
STARTCHAR LATIN
ENCODING 99
SWIDTH 437 0
DWIDTH 7 0
BBX 5 6 1 0
BITMAP
70
88
80
80
88
70
ENDCHAR
STARTCHAR LATIN
ENCODING 100
SWIDTH 437 0
DWIDTH 7 0
BBX 5 9 1 0
BITMAP
08
08
08
78
88
88
88
88
78
ENDCHAR
STARTCHAR LATIN
ENCODING 101
SWIDTH 437 0
DWIDTH 7 0
BBX 5 6 1 0
BITMAP
70
88
F8
80
88
70
ENDCHAR
STARTCHAR LATIN
ENCODING 102
SWIDTH 437 0
DWIDTH 7 0
BBX 5 8 1 0
BITMAP
38
40
F0
40
40
40
40
40
ENDCHAR
STARTCHAR LATIN
ENCODING 103
SWIDTH 437 0
DWIDTH 7 0
BBX 5 8 1 -2
BITMAP
78
88
88
88
88
78
08
70
ENDCHAR
STARTCHAR LATIN
ENCODING 104
SWIDTH 437 0
DWIDTH 7 0
BBX 5 8 1 0
BITMAP
80
80
B8
C8
88
88
88
88
ENDCHAR
STARTCHAR LATIN
ENCODING 105
SWIDTH 437 0
DWIDTH 7 0
BBX 2 9 2 0
BITMAP
40
40
00
C0
40
40
40
40
40
ENDCHAR
STARTCHAR LATIN
ENCODING 106
SWIDTH 437 0
DWIDTH 7 0
BBX 3 11 2 -2
BITMAP
20
20
00
60
20
20
20
20
20
20
C0
ENDCHAR
STARTCHAR LATIN
ENCODING 107
SWIDTH 437 0
DWIDTH 7 0
BBX 5 9 1 0
BITMAP
80
80
80
88
90
E0
E0
90
88
ENDCHAR
STARTCHAR LATIN
ENCODING 108
SWIDTH 437 0
DWIDTH 7 0
BBX 2 8 2 0
BITMAP
C0
40
40
40
40
40
40
40
ENDCHAR
STARTCHAR LATIN
ENCODING 109
SWIDTH 437 0
DWIDTH 7 0
BBX 5 6 1 0
BITMAP
F8
A8
A8
A8
A8
A8
ENDCHAR
STARTCHAR LATIN
ENCODING 110
SWIDTH 437 0
DWIDTH 7 0
BBX 5 6 1 0
BITMAP
B8
C8
88
88
88
88
ENDCHAR
STARTCHAR LATIN
ENCODING 111
SWIDTH 437 0
DWIDTH 7 0
BBX 5 6 1 0
BITMAP
70
88
88
88
88
70
ENDCHAR
STARTCHAR LATIN
ENCODING 112
SWIDTH 437 0
DWIDTH 7 0
BBX 5 8 1 -2
BITMAP
F0
88
88
88
88
F0
80
80
ENDCHAR
STARTCHAR LATIN
ENCODING 113
SWIDTH 437 0
DWIDTH 7 0
BBX 5 8 1 -2
BITMAP
78
88
88
88
88
78
08
08
ENDCHAR
STARTCHAR LATIN
ENCODING 114
SWIDTH 437 0
DWIDTH 7 0
BBX 5 6 1 0
BITMAP
B8
C0
80
80
80
80
ENDCHAR
STARTCHAR LATIN
ENCODING 115
SWIDTH 437 0
DWIDTH 7 0
BBX 5 6 1 0
BITMAP
70
88
70
08
88
70
ENDCHAR
STARTCHAR LATIN
ENCODING 116
SWIDTH 437 0
DWIDTH 7 0
BBX 4 8 1 0
BITMAP
40
40
F0
40
40
40
40
30
ENDCHAR
STARTCHAR LATIN
ENCODING 117
SWIDTH 437 0
DWIDTH 7 0
BBX 5 6 1 0
BITMAP
88
88
88
88
88
78
ENDCHAR
STARTCHAR LATIN
ENCODING 118
SWIDTH 437 0
DWIDTH 7 0
BBX 5 6 1 0
BITMAP
88
88
50
50
20
20
ENDCHAR
STARTCHAR LATIN
ENCODING 119
SWIDTH 437 0
DWIDTH 7 0
BBX 5 6 1 0
BITMAP
88
88
88
88
F8
88
ENDCHAR
STARTCHAR LATIN
ENCODING 120
SWIDTH 437 0
DWIDTH 7 0
BBX 5 6 1 0
BITMAP
88
50
20
20
50
88
ENDCHAR
STARTCHAR LATIN
ENCODING 121
SWIDTH 437 0
DWIDTH 7 0
BBX 5 8 1 -2
BITMAP
88
88
88
88
88
78
08
70
ENDCHAR
STARTCHAR LATIN
ENCODING 122
SWIDTH 437 0
DWIDTH 7 0
BBX 5 6 1 0
BITMAP
F8
10
20
40
80
F8
ENDCHAR
STARTCHAR LEFT
ENCODING 123
SWIDTH 437 0
DWIDTH 7 0
BBX 5 10 0 -1
BITMAP
18
20
20
20
C0
C0
20
20
20
18
ENDCHAR
STARTCHAR VERTICAL
ENCODING 124
SWIDTH 437 0
DWIDTH 7 0
BBX 1 8 3 0
BITMAP
80
80
80
80
80
80
80
80
ENDCHAR
STARTCHAR RIGHT
ENCODING 125
SWIDTH 437 0
DWIDTH 7 0
BBX 5 10 2 -1
BITMAP
C0
20
20
20
18
18
20
20
20
C0
ENDCHAR
STARTCHAR TILDE
ENCODING 126
SWIDTH 437 0
DWIDTH 7 0
BBX 6 3 1 3
BITMAP
64
B4
98
ENDCHAR
STARTCHAR NO-BREAK
ENCODING 160
SWIDTH 437 0
DWIDTH 7 0
BBX 5 2 1 0
BITMAP
88
F8
ENDCHAR
STARTCHAR INVERTED
ENCODING 161
SWIDTH 437 0
DWIDTH 7 0
BBX 1 8 3 0
BITMAP
80
80
00
80
80
80
80
80
ENDCHAR
STARTCHAR CENT
ENCODING 162
SWIDTH 437 0
DWIDTH 7 0
BBX 5 8 1 -1
BITMAP
20
70
A8
A0
A0
A8
70
20
ENDCHAR
STARTCHAR POUND
ENCODING 163
SWIDTH 437 0
DWIDTH 7 0
BBX 5 8 1 0
BITMAP
30
48
48
E0
40
40
88
F8
ENDCHAR
STARTCHAR CURRENCY
ENCODING 164
SWIDTH 437 0
DWIDTH 7 0
BBX 5 5 1 1
BITMAP
88
70
50
70
88
ENDCHAR
STARTCHAR YEN
ENCODING 165
SWIDTH 437 0
DWIDTH 7 0
BBX 5 8 1 0
BITMAP
88
88
50
F8
20
F8
20
20
ENDCHAR
STARTCHAR BROKEN
ENCODING 166
SWIDTH 437 0
DWIDTH 7 0
BBX 1 8 3 0
BITMAP
80
80
80
00
00
80
80
80
ENDCHAR
STARTCHAR SECTION
ENCODING 167
SWIDTH 437 0
DWIDTH 7 0
BBX 5 10 1 -2
BITMAP
70
88
80
F0
88
88
78
08
88
70
ENDCHAR
STARTCHAR DIAERESIS
ENCODING 168
SWIDTH 437 0
DWIDTH 7 0
BBX 3 2 2 6
BITMAP
A0
A0
ENDCHAR
STARTCHAR COPYRIGHT
ENCODING 169
SWIDTH 437 0
DWIDTH 7 0
BBX 6 8 1 0
BITMAP
78
84
B4
C4
C4
B4
84
78
ENDCHAR
STARTCHAR FEMININE
ENCODING 170
SWIDTH 437 0
DWIDTH 7 0
BBX 4 6 2 2
BITMAP
70
90
90
70
00
F0
ENDCHAR
STARTCHAR LEFT-POINTING
ENCODING 171
SWIDTH 437 0
DWIDTH 7 0
BBX 5 4 1 1
BITMAP
48
90
90
48
ENDCHAR
STARTCHAR NOT
ENCODING 172
SWIDTH 437 0
DWIDTH 7 0
BBX 5 4 1 0
BITMAP
F8
08
08
08
ENDCHAR
STARTCHAR SOFT
ENCODING 173
SWIDTH 437 0
DWIDTH 7 0
BBX 5 1 1 3
BITMAP
F8
ENDCHAR
STARTCHAR REGISTERED
ENCODING 174
SWIDTH 437 0
DWIDTH 7 0
BBX 6 8 1 0
BITMAP
78
84
B4
AC
B4
AC
84
78
ENDCHAR
STARTCHAR MACRON
ENCODING 175
SWIDTH 437 0
DWIDTH 7 0
BBX 5 1 1 7
BITMAP
F8
ENDCHAR
STARTCHAR DEGREE
ENCODING 176
SWIDTH 437 0
DWIDTH 7 0
BBX 4 4 2 4
BITMAP
60
90
90
60
ENDCHAR
STARTCHAR PLUS-MINUS
ENCODING 177
SWIDTH 437 0
DWIDTH 7 0
BBX 5 6 1 0
BITMAP
20
20
F8
20
20
F8
ENDCHAR
STARTCHAR SUPERSCRIPT
ENCODING 178
SWIDTH 437 0
DWIDTH 7 0
BBX 4 5 2 3
BITMAP
60
90
20
40
F0
ENDCHAR
STARTCHAR SUPERSCRIPT
ENCODING 179
SWIDTH 437 0
DWIDTH 7 0
BBX 4 5 2 3
BITMAP
E0
10
60
10
E0
ENDCHAR
STARTCHAR ACUTE
ENCODING 180
SWIDTH 437 0
DWIDTH 7 0
BBX 2 2 3 6
BITMAP
40
80
ENDCHAR
STARTCHAR MICRO
ENCODING 181
SWIDTH 437 0
DWIDTH 7 0
BBX 6 8 1 -2
BITMAP
88
88
88
88
C8
B8
84
80
ENDCHAR
STARTCHAR PILCROW
ENCODING 182
SWIDTH 437 0
DWIDTH 7 0
BBX 5 8 1 0
BITMAP
78
E8
E8
E8
68
28
28
28
ENDCHAR
STARTCHAR MIDDLE
ENCODING 183
SWIDTH 437 0
DWIDTH 7 0
BBX 1 2 3 2
BITMAP
80
80
ENDCHAR
STARTCHAR CEDILLA
ENCODING 184
SWIDTH 437 0
DWIDTH 7 0
BBX 2 2 2 -2
BITMAP
40
80
ENDCHAR
STARTCHAR SUPERSCRIPT
ENCODING 185
SWIDTH 437 0
DWIDTH 7 0
BBX 2 5 3 3
BITMAP
40
C0
40
40
40
ENDCHAR
STARTCHAR MASCULINE
ENCODING 186
SWIDTH 437 0
DWIDTH 7 0
BBX 4 6 2 2
BITMAP
60
90
90
60
00
F0
ENDCHAR
STARTCHAR RIGHT-POINTING
ENCODING 187
SWIDTH 437 0
DWIDTH 7 0
BBX 5 4 1 1
BITMAP
90
48
48
90
ENDCHAR
STARTCHAR VULGAR
ENCODING 188
SWIDTH 437 0
DWIDTH 7 0
BBX 6 9 1 -1
BITMAP
40
C0
44
48
54
2C
54
1C
04
ENDCHAR
STARTCHAR VULGAR
ENCODING 189
SWIDTH 437 0
DWIDTH 7 0
BBX 6 9 1 -1
BITMAP
40
C0
44
48
58
34
48
10
1C
ENDCHAR
STARTCHAR VULGAR
ENCODING 190
SWIDTH 437 0
DWIDTH 7 0
BBX 6 9 1 -1
BITMAP
C0
20
C4
28
D4
2C
54
1C
04
ENDCHAR
STARTCHAR INVERTED
ENCODING 191
SWIDTH 437 0
DWIDTH 7 0
BBX 5 8 1 0
BITMAP
20
20
00
20
10
88
88
70
ENDCHAR
STARTCHAR LATIN
ENCODING 192
SWIDTH 437 0
DWIDTH 7 0
BBX 5 10 1 0
BITMAP
40
20
20
20
50
50
70
88
88
88
ENDCHAR
STARTCHAR LATIN
ENCODING 193
SWIDTH 437 0
DWIDTH 7 0
BBX 5 10 1 0
BITMAP
10
20
20
20
50
50
70
88
88
88
ENDCHAR
STARTCHAR LATIN
ENCODING 194
SWIDTH 437 0
DWIDTH 7 0
BBX 5 10 1 0
BITMAP
20
50
20
20
50
50
70
88
88
88
ENDCHAR
STARTCHAR LATIN
ENCODING 195
SWIDTH 437 0
DWIDTH 7 0
BBX 5 10 1 0
BITMAP
28
50
20
20
50
50
70
88
88
88
ENDCHAR
STARTCHAR LATIN
ENCODING 196
SWIDTH 437 0
DWIDTH 7 0
BBX 5 10 1 0
BITMAP
50
00
20
20
50
50
70
88
88
88
ENDCHAR
STARTCHAR LATIN
ENCODING 197
SWIDTH 437 0
DWIDTH 7 0
BBX 5 10 1 0
BITMAP
20
50
20
20
50
50
70
88
88
88
ENDCHAR
STARTCHAR LATIN
ENCODING 198
SWIDTH 437 0
DWIDTH 7 0
BBX 6 8 1 0
BITMAP
1C
30
30
5C
50
70
90
9C
ENDCHAR
STARTCHAR LATIN
ENCODING 199
SWIDTH 437 0
DWIDTH 7 0
BBX 5 10 1 -2
BITMAP
70
88
80
80
80
80
88
70
20
40
ENDCHAR
STARTCHAR LATIN
ENCODING 200
SWIDTH 437 0
DWIDTH 7 0
BBX 5 10 1 0
BITMAP
40
20
F8
80
80
F0
80
80
80
F8
ENDCHAR
STARTCHAR LATIN
ENCODING 201
SWIDTH 437 0
DWIDTH 7 0
BBX 5 10 1 0
BITMAP
10
20
F8
80
80
F0
80
80
80
F8
ENDCHAR
STARTCHAR LATIN
ENCODING 202
SWIDTH 437 0
DWIDTH 7 0
BBX 5 10 1 0
BITMAP
20
50
F8
80
80
F0
80
80
80
F8
ENDCHAR
STARTCHAR LATIN
ENCODING 203
SWIDTH 437 0
DWIDTH 7 0
BBX 5 10 1 0
BITMAP
50
00
F8
80
80
F0
80
80
80
F8
ENDCHAR
STARTCHAR LATIN
ENCODING 204
SWIDTH 437 0
DWIDTH 7 0
BBX 3 10 2 0
BITMAP
80
40
E0
40
40
40
40
40
40
E0
ENDCHAR
STARTCHAR LATIN
ENCODING 205
SWIDTH 437 0
DWIDTH 7 0
BBX 3 10 2 0
BITMAP
20
40
E0
40
40
40
40
40
40
E0
ENDCHAR
STARTCHAR LATIN
ENCODING 206
SWIDTH 437 0
DWIDTH 7 0
BBX 3 10 2 0
BITMAP
40
A0
E0
40
40
40
40
40
40
E0
ENDCHAR
STARTCHAR LATIN
ENCODING 207
SWIDTH 437 0
DWIDTH 7 0
BBX 3 10 2 0
BITMAP
A0
00
E0
40
40
40
40
40
40
E0
ENDCHAR
STARTCHAR LATIN
ENCODING 208
SWIDTH 437 0
DWIDTH 7 0
BBX 6 8 0 0
BITMAP
78
44
44
44
E4
44
44
78
ENDCHAR
STARTCHAR LATIN
ENCODING 209
SWIDTH 437 0
DWIDTH 7 0
BBX 5 10 1 0
BITMAP
28
50
88
C8
C8
A8
A8
98
98
88
ENDCHAR
STARTCHAR LATIN
ENCODING 210
SWIDTH 437 0
DWIDTH 7 0
BBX 5 10 1 0
BITMAP
40
20
70
88
88
88
88
88
88
70
ENDCHAR
STARTCHAR LATIN
ENCODING 211
SWIDTH 437 0
DWIDTH 7 0
BBX 5 10 1 0
BITMAP
10
20
70
88
88
88
88
88
88
70
ENDCHAR
STARTCHAR LATIN
ENCODING 212
SWIDTH 437 0
DWIDTH 7 0
BBX 5 10 1 0
BITMAP
20
50
70
88
88
88
88
88
88
70
ENDCHAR
STARTCHAR LATIN
ENCODING 213
SWIDTH 437 0
DWIDTH 7 0
BBX 5 10 1 0
BITMAP
28
50
70
88
88
88
88
88
88
70
ENDCHAR
STARTCHAR LATIN
ENCODING 214
SWIDTH 437 0
DWIDTH 7 0
BBX 5 10 1 0
BITMAP
50
00
70
88
88
88
88
88
88
70
ENDCHAR
STARTCHAR MULTIPLICATION
ENCODING 215
SWIDTH 437 0
DWIDTH 7 0
BBX 3 3 2 2
BITMAP
A0
40
A0
ENDCHAR
STARTCHAR LATIN
ENCODING 216
SWIDTH 437 0
DWIDTH 7 0
BBX 7 8 0 0
BITMAP
3A
44
4C
54
64
64
44
B8
ENDCHAR
STARTCHAR LATIN
ENCODING 217
SWIDTH 437 0
DWIDTH 7 0
BBX 5 10 1 0
BITMAP
40
20
88
88
88
88
88
88
88
78
ENDCHAR
STARTCHAR LATIN
ENCODING 218
SWIDTH 437 0
DWIDTH 7 0
BBX 5 10 1 0
BITMAP
10
20
88
88
88
88
88
88
88
78
ENDCHAR
STARTCHAR LATIN
ENCODING 219
SWIDTH 437 0
DWIDTH 7 0
BBX 5 10 1 0
BITMAP
20
50
88
88
88
88
88
88
88
78
ENDCHAR
STARTCHAR LATIN
ENCODING 220
SWIDTH 437 0
DWIDTH 7 0
BBX 5 10 1 0
BITMAP
50
00
88
88
88
88
88
88
88
78
ENDCHAR
STARTCHAR LATIN
ENCODING 221
SWIDTH 437 0
DWIDTH 7 0
BBX 5 10 1 0
BITMAP
10
20
88
88
50
50
20
20
20
20
ENDCHAR
STARTCHAR LATIN
ENCODING 222
SWIDTH 437 0
DWIDTH 7 0
BBX 4 9 2 -1
BITMAP
80
80
E0
90
90
90
E0
80
80
ENDCHAR
STARTCHAR LATIN
ENCODING 223
SWIDTH 437 0
DWIDTH 7 0
BBX 5 8 1 0
BITMAP
60
90
90
A0
B0
88
88
90
ENDCHAR
STARTCHAR LATIN
ENCODING 224
SWIDTH 437 0
DWIDTH 7 0
BBX 5 9 1 0
BITMAP
40
20
00
70
08
78
88
88
78
ENDCHAR
STARTCHAR LATIN
ENCODING 225
SWIDTH 437 0
DWIDTH 7 0
BBX 5 9 1 0
BITMAP
10
20
00
70
08
78
88
88
78
ENDCHAR
STARTCHAR LATIN
ENCODING 226
SWIDTH 437 0
DWIDTH 7 0
BBX 5 9 1 0
BITMAP
20
50
00
70
08
78
88
88
78
ENDCHAR
STARTCHAR LATIN
ENCODING 227
SWIDTH 437 0
DWIDTH 7 0
BBX 5 9 1 0
BITMAP
28
50
00
70
08
78
88
88
78
ENDCHAR
STARTCHAR LATIN
ENCODING 228
SWIDTH 437 0
DWIDTH 7 0
BBX 5 9 1 0
BITMAP
50
50
00
70
08
78
88
88
78
ENDCHAR
STARTCHAR LATIN
ENCODING 229
SWIDTH 437 0
DWIDTH 7 0
BBX 5 10 1 0
BITMAP
20
50
20
00
70
08
78
88
88
78
ENDCHAR
STARTCHAR LATIN
ENCODING 230
SWIDTH 437 0
DWIDTH 7 0
BBX 7 6 0 0
BITMAP
6C
12
7E
90
90
6C
ENDCHAR
STARTCHAR LATIN
ENCODING 231
SWIDTH 437 0
DWIDTH 7 0
BBX 5 8 1 -2
BITMAP
70
88
80
80
88
70
20
40
ENDCHAR
STARTCHAR LATIN
ENCODING 232
SWIDTH 437 0
DWIDTH 7 0
BBX 5 9 1 0
BITMAP
40
20
00
70
88
F8
80
88
70
ENDCHAR
STARTCHAR LATIN
ENCODING 233
SWIDTH 437 0
DWIDTH 7 0
BBX 5 9 1 0
BITMAP
10
20
00
70
88
F8
80
88
70
ENDCHAR
STARTCHAR LATIN
ENCODING 234
SWIDTH 437 0
DWIDTH 7 0
BBX 5 9 1 0
BITMAP
20
50
00
70
88
F8
80
88
70
ENDCHAR
STARTCHAR LATIN
ENCODING 235
SWIDTH 437 0
DWIDTH 7 0
BBX 5 9 1 0
BITMAP
50
50
00
70
88
F8
80
88
70
ENDCHAR
STARTCHAR LATIN
ENCODING 236
SWIDTH 437 0
DWIDTH 7 0
BBX 2 9 2 0
BITMAP
80
40
00
C0
40
40
40
40
40
ENDCHAR
STARTCHAR LATIN
ENCODING 237
SWIDTH 437 0
DWIDTH 7 0
BBX 3 9 2 0
BITMAP
20
40
00
C0
40
40
40
40
40
ENDCHAR
STARTCHAR LATIN
ENCODING 238
SWIDTH 437 0
DWIDTH 7 0
BBX 3 9 2 0
BITMAP
40
A0
00
C0
40
40
40
40
40
ENDCHAR
STARTCHAR LATIN
ENCODING 239
SWIDTH 437 0
DWIDTH 7 0
BBX 3 9 2 0
BITMAP
A0
A0
00
C0
40
40
40
40
40
ENDCHAR
STARTCHAR LATIN
ENCODING 240
SWIDTH 437 0
DWIDTH 7 0
BBX 5 9 1 0
BITMAP
A0
40
A0
70
88
88
88
88
70
ENDCHAR
STARTCHAR LATIN
ENCODING 241
SWIDTH 437 0
DWIDTH 7 0
BBX 5 9 1 0
BITMAP
28
50
00
B8
C8
88
88
88
88
ENDCHAR
STARTCHAR LATIN
ENCODING 242
SWIDTH 437 0
DWIDTH 7 0
BBX 5 9 1 0
BITMAP
40
20
00
70
88
88
88
88
70
ENDCHAR
STARTCHAR LATIN
ENCODING 243
SWIDTH 437 0
DWIDTH 7 0
BBX 5 9 1 0
BITMAP
10
20
00
70
88
88
88
88
70
ENDCHAR
STARTCHAR LATIN
ENCODING 244
SWIDTH 437 0
DWIDTH 7 0
BBX 5 9 1 0
BITMAP
20
50
00
70
88
88
88
88
70
ENDCHAR
STARTCHAR LATIN
ENCODING 245
SWIDTH 437 0
DWIDTH 7 0
BBX 5 9 1 0
BITMAP
28
50
00
70
88
88
88
88
70
ENDCHAR
STARTCHAR LATIN
ENCODING 246
SWIDTH 437 0
DWIDTH 7 0
BBX 5 9 1 0
BITMAP
50
50
00
70
88
88
88
88
70
ENDCHAR
STARTCHAR DIVISION
ENCODING 247
SWIDTH 437 0
DWIDTH 7 0
BBX 5 7 1 0
BITMAP
20
20
00
F8
00
20
20
ENDCHAR
STARTCHAR LATIN
ENCODING 248
SWIDTH 437 0
DWIDTH 7 0
BBX 7 7 0 0
BITMAP
02
3C
4C
54
64
44
B8
ENDCHAR
STARTCHAR LATIN
ENCODING 249
SWIDTH 437 0
DWIDTH 7 0
BBX 5 9 1 0
BITMAP
40
20
00
88
88
88
88
88
78
ENDCHAR
STARTCHAR LATIN
ENCODING 250
SWIDTH 437 0
DWIDTH 7 0
BBX 5 9 1 0
BITMAP
10
20
00
88
88
88
88
88
78
ENDCHAR
STARTCHAR LATIN
ENCODING 251
SWIDTH 437 0
DWIDTH 7 0
BBX 5 9 1 0
BITMAP
20
50
00
88
88
88
88
88
78
ENDCHAR
STARTCHAR LATIN
ENCODING 252
SWIDTH 437 0
DWIDTH 7 0
BBX 5 9 1 0
BITMAP
50
50
00
88
88
88
88
88
78
ENDCHAR
STARTCHAR LATIN
ENCODING 253
SWIDTH 437 0
DWIDTH 7 0
BBX 5 11 1 -2
BITMAP
10
20
00
88
88
88
88
88
78
08
70
ENDCHAR
STARTCHAR LATIN
ENCODING 254
SWIDTH 437 0
DWIDTH 7 0
BBX 5 9 1 -1
BITMAP
80
B0
C8
88
88
88
C8
B0
80
ENDCHAR
STARTCHAR LATIN
ENCODING 255
SWIDTH 437 0
DWIDTH 7 0
BBX 5 11 1 -2
BITMAP
50
50
00
88
88
88
88
88
78
08
70
ENDCHAR
ENDFONT
